<svg width="1005" height="1004" viewBox="0 0 1005 1004" fill="none" xmlns="http://www.w3.org/2000/svg">
<mask id="mask0_557_688" style={{maskType:"alpha"}} maskUnits="userSpaceOnUse" x="0" y="-1" width="1006" height="1006">
<path d="M7.79792 34.7455L27.1458 5.06705H146.894L168.333 34.7455L321.548 32.7546L332.529 18.0966H424.562H436.067H489.927L498.817 34.7455L509.275 18.0966L519.21 34.7455L530.192 18.0966H540.65L551.108 0H661.967L682.883 34.7455H980.946L1005 55.0137V220.779L991.404 233.808V293.889L980.946 315.605V366.999V639.172L991.404 655.097L980.946 671.022L991.404 686.224L980.946 702.149L991.404 717.35L980.946 731.827V828.101L998.725 859.951V966.359H980.946V988.075L970.487 1004H950.617L937.544 988.075H887.344H838.713H427.177H403.646H392.142H373.84L362.858 975.769L352.4 988.075L341.942 975.769L332.006 988.075H290.696H278.146H269.256H247.817L237.881 975.769H134.344L111.335 1004H28.7146L11.9812 975.769V916.412V901.211V859.951V843.075V828.825H1V815.795V777.43H7.79792V731.02V699.822V625.373V578.576V432.514V383.59V311.268V291.231V275.566V247.796V229.994V135.291L18.2563 120.338L7.79792 107.521V79.0383V60.8046V34.7455Z" fill="#79BFFF"/>
<path d="M7.79792 34.7455L27.1458 5.06705H146.894L168.333 34.7455L321.548 32.7546L332.529 18.0966H424.562H436.067H489.927L498.817 34.7455L509.275 18.0966L519.21 34.7455L530.192 18.0966H540.65L551.108 0H661.967L682.883 34.7455H980.946L1005 55.0137V220.779L991.404 233.808V293.889L980.946 315.605V220.779L998.725 204.13V62.9762L980.946 47.7751V366.999V639.172L991.404 655.097L980.946 671.022L991.404 686.224L980.946 702.149L991.404 717.35L980.946 731.827V828.101L998.725 859.951V966.359H980.946V988.075L970.487 1004H950.617L937.544 988.075H887.344H838.713H427.177H403.646H392.142H373.84L362.858 975.769L352.4 988.075L341.942 975.769L332.006 988.075H290.696H278.146H269.256H247.817L237.881 975.769H134.344L111.335 1004H28.7146L11.9812 975.769V916.412V901.211V859.951V843.075V828.825H1V815.795V777.43H7.79792V731.02V699.822V625.373V578.576V432.514V383.59V311.268V291.231V275.566V247.796V229.994V135.291L18.2563 120.338L7.79792 107.521V79.0383V60.8046V34.7455Z" stroke="black"/>
</mask>
<g mask="url(#mask0_557_688)">
<rect x="-3.18262" width="1008.18" height="1003.28" fill="#3FA4FF"/>
</g>
<rect x="736.226" y="967.435" width="5.21082" height="3.15702" transform="rotate(-180 736.226 967.435)" fill="#EBD8B3"/>
<rect width="286.595" height="6.31405" transform="matrix(-1 -1.36911e-07 -6.9011e-05 -1 725.803 969.014)" fill="#EBD8B3"/>
<path d="M720.447 972.172L728.332 981.643L717.818 981.643L713.875 976.908L709.933 972.172L720.447 972.172Z" fill="#79BFFF"/>
<path d="M704.686 972.172L712.571 981.643L702.057 981.643L698.115 976.908L694.172 972.172L704.686 972.172Z" fill="#79BFFF"/>
<path d="M688.911 972.172L696.797 981.643L686.283 981.643L682.34 976.908L678.398 972.172L688.911 972.172Z" fill="#79BFFF"/>
<path d="M169.382 29.9043L151.603 5.69434H169.382L187.161 29.9043H169.382Z" fill="#D0D8DD"/>
<path d="M192.39 29.9043L174.611 5.69434H192.39L210.17 29.9043H192.39Z" fill="#BCC7CF"/>
<path d="M214.351 29.9043L196.572 5.69434H214.351L232.131 29.9043H214.351Z" fill="#7A848A"/>
<path d="M236.312 29.9043L218.533 5.69434H236.312L254.092 29.9043H236.312Z" fill="#6A7378"/>
<path d="M998.728 172.318L998.728 217.89L987.747 230.707L987.747 292.656L980.949 278.414L980.949 220.738L980.949 196.528L998.728 172.318Z" fill="#E8F4FF"/>
<path d="M686.438 23.0678L680.79 17.0892H884.115L889.763 23.0678H686.438Z" fill="#AEBCC5"/>
<rect x="680.79" width="10.4583" height="14.2411" fill="#E2C893"/>
<rect x="762.363" y="5.69434" width="209.167" height="4.27234" fill="#A0D2FF"/>
<ellipse cx="990.883" cy="952.019" rx="3.66042" ry="4.9844" fill="#EBD8B3"/>
<ellipse cx="981.472" cy="952.019" rx="3.66042" ry="4.9844" fill="#EBD8B3"/>
<ellipse cx="972.058" cy="939.202" rx="3.66042" ry="4.9844" fill="#EBD8B3"/>
<ellipse cx="981.472" cy="939.202" rx="3.66042" ry="4.9844" fill="#EBD8B3"/>
<ellipse cx="990.883" cy="939.202" rx="3.66042" ry="4.9844" fill="#EBD8B3"/>
<ellipse cx="990.883" cy="926.385" rx="3.66042" ry="4.9844" fill="#EBD8B3"/>
<ellipse cx="990.883" cy="913.569" rx="3.66042" ry="4.9844" fill="#EBD8B3"/>
<ellipse cx="990.883" cy="900.752" rx="3.66042" ry="4.9844" fill="#EBD8B3"/>
<ellipse cx="981.472" cy="900.752" rx="3.66042" ry="4.9844" fill="#EBD8B3"/>
<ellipse cx="990.883" cy="887.935" rx="3.66042" ry="4.9844" fill="#EBD8B3"/>
<ellipse cx="990.883" cy="875.117" rx="3.66042" ry="4.9844" fill="#EBD8B3"/>
<ellipse cx="981.472" cy="875.118" rx="3.66042" ry="4.9844" fill="#EBD8B3"/>
<ellipse cx="972.058" cy="875.117" rx="3.66042" ry="4.9844" fill="#EBD8B3"/>
<ellipse cx="972.058" cy="887.935" rx="3.66042" ry="4.9844" fill="#EBD8B3"/>
<ellipse cx="981.472" cy="887.935" rx="3.66042" ry="4.9844" fill="#EBD8B3"/>
<ellipse cx="972.058" cy="900.752" rx="3.66042" ry="4.9844" fill="#EBD8B3"/>
<ellipse cx="972.058" cy="913.569" rx="3.66042" ry="4.9844" fill="#EBD8B3"/>
<ellipse cx="981.472" cy="926.385" rx="3.66042" ry="4.9844" fill="#EBD8B3"/>
<ellipse cx="981.472" cy="913.569" rx="3.66042" ry="4.9844" fill="#EBD8B3"/>
<ellipse cx="972.058" cy="926.385" rx="3.66042" ry="4.9844" fill="#EBD8B3"/>
<ellipse cx="972.058" cy="952.02" rx="3.66042" ry="4.9844" fill="#EBD8B3"/>
<ellipse cx="38.1238" cy="42.0114" rx="4.9844" ry="3.66042" transform="rotate(90 38.1238 42.0114)" fill="#EBD8B3"/>
<ellipse cx="38.1238" cy="29.1957" rx="4.9844" ry="3.66042" transform="rotate(90 38.1238 29.1957)" fill="#EBD8B3"/>
<ellipse cx="47.5368" cy="16.378" rx="4.9844" ry="3.66042" transform="rotate(90 47.5368 16.378)" fill="#EBD8B3"/>
<ellipse cx="47.5368" cy="29.1957" rx="4.9844" ry="3.66042" transform="rotate(90 47.5368 29.1957)" fill="#EBD8B3"/>
<ellipse cx="47.5368" cy="42.0114" rx="4.9844" ry="3.66042" transform="rotate(90 47.5368 42.0114)" fill="#EBD8B3"/>
<ellipse cx="56.9529" cy="42.0114" rx="4.9844" ry="3.66042" transform="rotate(90 56.9529 42.0114)" fill="#EBD8B3"/>
<ellipse cx="66.363" cy="42.0114" rx="4.9844" ry="3.66042" transform="rotate(90 66.363 42.0114)" fill="#EBD8B3"/>
<ellipse cx="75.7693" cy="42.0114" rx="4.9844" ry="3.66042" transform="rotate(90 75.7693 42.0114)" fill="#EBD8B3"/>
<ellipse cx="75.7693" cy="29.1957" rx="4.9844" ry="3.66042" transform="rotate(90 75.7693 29.1957)" fill="#EBD8B3"/>
<ellipse cx="85.1863" cy="42.0114" rx="4.9844" ry="3.66042" transform="rotate(90 85.1863 42.0114)" fill="#EBD8B3"/>
<ellipse cx="4.9844" cy="3.66042" rx="4.9844" ry="3.66042" transform="matrix(-0.00020408 1 -1 -7.44019e-08 98.2598 37.027)" fill="#EBD8B3"/>
<ellipse cx="4.9844" cy="3.66042" rx="4.9844" ry="3.66042" transform="matrix(-0.00020408 1 -1 -7.44019e-08 98.2598 24.2113)" fill="#EBD8B3"/>
<ellipse cx="4.9844" cy="3.66042" rx="4.9844" ry="3.66042" transform="matrix(-0.00016387 1 -1 -7.44018e-08 98.2598 11.3936)" fill="#EBD8B3"/>
<ellipse cx="85.1853" cy="16.378" rx="4.9844" ry="3.66042" transform="rotate(90 85.1853 16.378)" fill="#EBD8B3"/>
<ellipse cx="85.1853" cy="29.1957" rx="4.9844" ry="3.66042" transform="rotate(90 85.1853 29.1957)" fill="#EBD8B3"/>
<ellipse cx="75.7732" cy="16.378" rx="4.9844" ry="3.66042" transform="rotate(90 75.7732 16.378)" fill="#EBD8B3"/>
<ellipse cx="66.3669" cy="16.378" rx="4.9844" ry="3.66042" transform="rotate(90 66.3669 16.378)" fill="#EBD8B3"/>
<ellipse cx="56.9529" cy="29.1957" rx="4.9844" ry="3.66042" transform="rotate(90 56.9529 29.1957)" fill="#EBD8B3"/>
<ellipse cx="66.363" cy="29.1957" rx="4.9844" ry="3.66042" transform="rotate(90 66.363 29.1957)" fill="#EBD8B3"/>
<ellipse cx="56.9529" cy="16.378" rx="4.9844" ry="3.66042" transform="rotate(90 56.9529 16.378)" fill="#EBD8B3"/>
<ellipse cx="38.1247" cy="16.378" rx="4.9844" ry="3.66042" transform="rotate(90 38.1247 16.378)" fill="#EBD8B3"/>
<path d="M25.0535 119.625L13.0264 137.427V283.398L25.0535 270.581V119.625Z" fill="#7A848A"/>
<path d="M5.70117 820.289V786.823H17.7283L27.0134 798.511V963.316L37.7268 979.176H105.578L125.475 957.004H220.365L234.14 970.533H134.658L111.7 998.484H30.2783L15.2797 974.349V820.289H5.70117Z" fill="#F1F3F2"/>
</svg>
