<svg width="469" height="272" viewBox="0 0 469 272" fill="none" xmlns="http://www.w3.org/2000/svg">
<path d="M24.3373 0H0L11.6616 14.8451L24.3373 0Z" fill="#DEE4E7"/>
<path d="M11.6616 34.9577L0 21.5493V101.521L11.6616 116.366L0 132.169V238.479L24.3373 258.113H70.9838L77.0681 246.62H292.048L303.202 258.113H368.102L378.749 272L388.383 258.113H450.24L469 238.479V77.5775L457.338 69.4366L469 58.9014L457.338 51.2394L469 42.6197V0H259.091L248.443 10.5352H85.6876L77.0681 0H43.0973L11.6616 34.9577Z" fill="#DEE4E7"/>
<path d="M287 258.113H81.5L77.0681 267.5H296.5L287 258.113Z" fill="#DEE4E7"/>
<path d="M430.714 12L438 6H428.286L424.643 9L421 12H430.714Z" fill="#79BFFF"/>
<path d="M457.714 12L465 6H455.286L451.643 9L448 12H457.714Z" fill="#79BFFF"/>
<path d="M444.714 12L452 6H442.286L438.643 9L435 12H444.714Z" fill="#79BFFF"/>
<path d="M313 248.5L306.25 254.129L306.25 242.871L313 248.5Z" fill="#EBA0C8"/>
<rect x="5" y="40" width="10" height="10" fill="#CDA145"/>
<path d="M7 156.53L10 152V227H7V156.53Z" fill="#AEBCC5"/>
<rect x="372" y="14" width="88" height="3" fill="#7A848A"/>
<path d="M291.784 10L290 7H354.216L356 10H291.784Z" fill="#D6B165"/>
</svg>
